<svg width="20" height="20" viewBox="0 0 20 20" fill="none" xmlns="http://www.w3.org/2000/svg">
<path d="M7.63332 9.05829C7.54999 9.04996 7.44999 9.04996 7.35832 9.05829C5.37499 8.99163 3.79999 7.36663 3.79999 5.36663C3.79999 3.32496 5.44999 1.66663 7.49999 1.66663C9.54165 1.66663 11.2 3.32496 11.2 5.36663C11.1917 7.36663 9.61665 8.99163 7.63332 9.05829Z" stroke="#263B73" stroke-width="1.5" stroke-linecap="round" stroke-linejoin="round"/>
<path opacity="0.4" d="M13.675 3.33337C15.2917 3.33337 16.5917 4.64171 16.5917 6.25004C16.5917 7.82504 15.3417 9.10837 13.7833 9.16671C13.7167 9.15837 13.6417 9.15837 13.5667 9.16671" stroke="#263B73" stroke-width="1.5" stroke-linecap="round" stroke-linejoin="round"/>
<path d="M3.46666 12.1334C1.45 13.4834 1.45 15.6834 3.46666 17.025C5.75833 18.5584 9.51666 18.5584 11.8083 17.025C13.825 15.675 13.825 13.475 11.8083 12.1334C9.525 10.6084 5.76666 10.6084 3.46666 12.1334Z" stroke="#263B73" stroke-width="1.5" stroke-linecap="round" stroke-linejoin="round"/>
<path opacity="0.4" d="M15.2833 16.6666C15.8833 16.5416 16.45 16.3 16.9167 15.9416C18.2167 14.9666 18.2167 13.3583 16.9167 12.3833C16.4583 12.0333 15.9 11.8 15.3083 11.6666" stroke="#263B73" stroke-width="1.5" stroke-linecap="round" stroke-linejoin="round"/>
</svg>
