<svg width="156" height="195" viewBox="0 0 156 195" fill="none" xmlns="http://www.w3.org/2000/svg">
<path d="M-35.2596 54.7243C-31.7649 36.4626 -21.1514 20.3459 -5.75919 9.92268C6.89223 1.27976 22.4967 -1.89659 37.5225 1.10308C52.5953 4.12497 65.1538 12.3113 73.5709 25.2262C83.3239 40.1933 83.8452 53.92 82.1425 70.8169C100.104 67.5233 116.156 68.1839 131.716 79.2162C157.534 97.5218 162.944 132.77 144.482 158.521C118.198 195.188 69.7087 190.599 29.635 193.074C14.5786 194.005 -3.15297 194.468 -18.2718 194.37C-18.5038 188.71 -18.2542 182.359 -18.1408 176.642C-11.6829 174.714 1.56069 175.159 9.041 174.702C41.1914 172.496 75.6301 176.302 106.371 164.905C140.852 152.129 148.55 105.19 111.367 90.059C95.6832 83.6793 81.1175 89.6712 66.6145 96.1191C56.6388 87.6388 56.3077 88.0794 61.451 75.4399C76.1212 39.3749 37.8412 2.84491 3.93278 26.8268C-17.796 42.1919 -17.7292 62.9258 -22.1538 86.4748C-23.2734 85.3919 -32.6704 59.7655 -35.2596 54.7243Z" fill="#28B8A5" fill-opacity="0.2"/>
</svg>
