<svg width="20" height="20" viewBox="0 0 20 20" fill="none" xmlns="http://www.w3.org/2000/svg">
<path opacity="0.4" d="M17.0833 8.49163H14.675C12.7 8.49163 11.0917 6.88329 11.0917 4.90829V2.49996C11.0917 2.04163 10.7167 1.66663 10.2583 1.66663H6.72501C4.15834 1.66663 2.08334 3.33329 2.08334 6.30829V13.6916C2.08334 16.6666 4.15834 18.3333 6.72501 18.3333H13.275C15.8417 18.3333 17.9167 16.6666 17.9167 13.6916V9.32496C17.9167 8.86663 17.5417 8.49163 17.0833 8.49163Z" fill="#F2C46D"/>
<path d="M13.1667 1.8417C12.825 1.50003 12.2333 1.73337 12.2333 2.20837V5.1167C12.2333 6.33337 13.2667 7.3417 14.525 7.3417C15.3167 7.35004 16.4167 7.35003 17.3583 7.35003C17.8333 7.35003 18.0833 6.7917 17.75 6.45837C16.55 5.25003 14.4 3.07503 13.1667 1.8417Z" fill="#F2C46D"/>
<path d="M11.25 11.4584H6.25C5.90833 11.4584 5.625 11.175 5.625 10.8334C5.625 10.4917 5.90833 10.2084 6.25 10.2084H11.25C11.5917 10.2084 11.875 10.4917 11.875 10.8334C11.875 11.175 11.5917 11.4584 11.25 11.4584Z" fill="#F2C46D"/>
<path d="M9.58333 14.7916H6.25C5.90833 14.7916 5.625 14.5083 5.625 14.1666C5.625 13.825 5.90833 13.5416 6.25 13.5416H9.58333C9.925 13.5416 10.2083 13.825 10.2083 14.1666C10.2083 14.5083 9.925 14.7916 9.58333 14.7916Z" fill="#F2C46D"/>
</svg>
