<svg width="20" height="20" viewBox="0 0 20 20" fill="none" xmlns="http://www.w3.org/2000/svg">
<path d="M15.0334 11.2917C14.6834 11.6334 14.4834 12.125 14.5334 12.65C14.6084 13.55 15.4334 14.2084 16.3334 14.2084H17.9167V15.2C17.9167 16.925 16.5084 18.3334 14.7834 18.3334H5.21671C3.49171 18.3334 2.08337 16.925 2.08337 15.2V9.59172C2.08337 7.86672 3.49171 6.45837 5.21671 6.45837H14.7834C16.5084 6.45837 17.9167 7.86672 17.9167 9.59172V10.7917H16.2334C15.7667 10.7917 15.3417 10.975 15.0334 11.2917Z" stroke="#34C759" stroke-width="1.25" stroke-linecap="round" stroke-linejoin="round"/>
<path d="M2.08337 10.3417V6.53342C2.08337 5.54175 2.69171 4.65838 3.61671 4.30838L10.2334 1.80838C11.2667 1.41672 12.375 2.18341 12.375 3.29174V6.4584" stroke="#34C759" stroke-width="1.25" stroke-linecap="round" stroke-linejoin="round"/>
<path d="M18.799 11.6418V13.3586C18.799 13.8169 18.4324 14.1918 17.9657 14.2085H16.3324C15.4324 14.2085 14.6074 13.5502 14.5324 12.6502C14.4824 12.1252 14.6824 11.6335 15.0324 11.2918C15.3407 10.9752 15.7657 10.7919 16.2324 10.7919H17.9657C18.4324 10.8085 18.799 11.1835 18.799 11.6418Z" stroke="#34C759" stroke-width="1.25" stroke-linecap="round" stroke-linejoin="round"/>
<path d="M5.83337 10H11.6667" stroke="#34C759" stroke-width="1.25" stroke-linecap="round" stroke-linejoin="round"/>
</svg>
