<svg width="20" height="20" viewBox="0 0 20 20" fill="none" xmlns="http://www.w3.org/2000/svg">
<path opacity="0.4" d="M18.3333 6.50829V11.6666H14.9333C14.375 11.6666 13.7167 11.2666 13.4583 10.775L12.5917 9.13329C12.3583 8.69163 12.025 8.71663 11.8417 9.17496L9.92499 14.0166C9.71666 14.5583 9.36666 14.5583 9.14999 14.0166L8.19999 11.6166C7.97499 11.0333 7.27499 10.5583 6.64999 10.5583L1.66666 10.5833V6.50829C1.66666 3.47496 3.47499 1.66663 6.50832 1.66663H13.4917C16.525 1.66663 18.3333 3.47496 18.3333 6.50829Z" fill="#28B8A5"/>
<path d="M18.3333 13.4916V11.6666H14.9333C14.375 11.6666 13.7167 11.2666 13.4583 10.775L12.5917 9.13329C12.3583 8.69162 12.025 8.71662 11.8417 9.17496L9.92499 14.0166C9.71666 14.5583 9.36666 14.5583 9.14999 14.0166L8.19999 11.6166C7.97499 11.0333 7.27499 10.5583 6.64999 10.5583L1.66666 10.5833V13.4916C1.66666 16.475 3.41666 18.275 6.35832 18.325C6.44999 18.3333 6.54999 18.3333 6.64166 18.3333H13.3083C13.4333 18.3333 13.5583 18.3333 13.675 18.325C16.6 18.2583 18.3333 16.4666 18.3333 13.4916Z" fill="#28B8A5"/>
<path d="M1.66666 10.5834V13.3417C1.65 13.075 1.64166 12.7917 1.64166 12.5V10.5834H1.66666Z" fill="#28B8A5"/>
</svg>
