<svg width="12" height="12" viewBox="0 0 12 12" fill="none" xmlns="http://www.w3.org/2000/svg">
<path d="M9.64998 3.95999V6.535C9.64998 8.075 8.76998 8.73499 7.44998 8.73499H3.05498C2.82998 8.73499 2.61498 8.71501 2.41498 8.67001C2.28998 8.65001 2.16998 8.61501 2.05998 8.57501C1.30998 8.29501 0.85498 7.645 0.85498 6.535V3.95999C0.85498 2.41999 1.73498 1.76001 3.05498 1.76001H7.44998C8.56998 1.76001 9.37498 2.23501 9.58998 3.32001C9.62498 3.52001 9.64998 3.72499 9.64998 3.95999Z" stroke="#14213D" stroke-width="0.75" stroke-miterlimit="10" stroke-linecap="round" stroke-linejoin="round"/>
<path d="M11.1505 5.46005V8.03506C11.1505 9.57506 10.2705 10.235 8.95053 10.235H4.55553C4.18553 10.235 3.85053 10.1851 3.56053 10.0751C2.96553 9.85507 2.56053 9.40007 2.41553 8.67007C2.61553 8.71507 2.83053 8.73505 3.05553 8.73505H7.45053C8.77053 8.73505 9.65053 8.07506 9.65053 6.53506V3.96005C9.65053 3.72505 9.63053 3.51507 9.59053 3.32007C10.5405 3.52007 11.1505 4.19005 11.1505 5.46005Z" stroke="#14213D" stroke-width="0.75" stroke-miterlimit="10" stroke-linecap="round" stroke-linejoin="round"/>
<path d="M5.24921 6.56995C5.97822 6.56995 6.56921 5.97895 6.56921 5.24994C6.56921 4.52092 5.97822 3.92993 5.24921 3.92993C4.52019 3.92993 3.9292 4.52092 3.9292 5.24994C3.9292 5.97895 4.52019 6.56995 5.24921 6.56995Z" stroke="#14213D" stroke-width="0.75" stroke-miterlimit="10" stroke-linecap="round" stroke-linejoin="round"/>
<path d="M2.38989 4.14999V6.35001" stroke="#14213D" stroke-width="0.75" stroke-miterlimit="10" stroke-linecap="round" stroke-linejoin="round"/>
<path d="M8.11084 4.15015V6.35016" stroke="#14213D" stroke-width="0.75" stroke-miterlimit="10" stroke-linecap="round" stroke-linejoin="round"/>
</svg>
