<svg width="24" height="24" viewBox="0 0 24 24" fill="none" xmlns="http://www.w3.org/2000/svg">
<path d="M12.0203 2.54999C15.3635 2.55015 18.0896 5.27581 18.0896 8.63007V10.5002C18.0896 10.8026 18.1569 11.1688 18.2498 11.5012C18.3422 11.8319 18.4746 12.1781 18.6316 12.4367V12.4377L19.7615 14.3176C20.0942 14.879 20.1569 15.5391 19.9324 16.1428C19.7332 16.669 19.3424 17.0952 18.8279 17.3351L18.6003 17.426C17.5444 17.7779 16.4613 18.0505 15.3708 18.2258L15.3601 18.2277C15.2465 18.2484 15.1588 18.264 15.075 18.2717L15.0564 18.2736L15.0378 18.2766L14.5251 18.343L14.5125 18.3449C14.3067 18.373 14.0886 18.3921 13.8562 18.4123H13.8513C13.2479 18.4707 12.6342 18.5002 12.0203 18.5002C11.3958 18.5002 10.7709 18.4708 10.157 18.4123L10.1472 18.4113L9.76831 18.3762C9.64351 18.3619 9.51998 18.3444 9.39624 18.3254L9.38647 18.3244L8.95093 18.2648H8.94995C8.88931 18.2543 8.831 18.246 8.78296 18.2394L8.6394 18.218L8.63452 18.217L7.82202 18.0646C7.01398 17.8981 6.21775 17.689 5.42847 17.426L5.42456 17.424L5.18433 17.3322C4.64382 17.0893 4.2466 16.6627 4.05933 16.1564L4.05835 16.1545L3.99292 15.9396C3.87035 15.4276 3.96121 14.8442 4.28003 14.3029L5.40894 12.4279L5.41187 12.423C5.56203 12.1665 5.69069 11.8201 5.78198 11.4885C5.87306 11.1575 5.94012 10.7924 5.94019 10.4904V8.63007C5.94019 5.27782 8.66457 2.55981 12.0203 2.54999ZM11.99 5.63983C11.294 5.63983 10.7304 6.20363 10.7302 6.8996V10.0002C10.7303 10.6962 11.2939 11.2599 11.99 11.2599C12.6861 11.2599 13.2497 10.6962 13.2498 10.0002V6.8996C13.2495 6.20365 12.686 5.63985 11.99 5.63983Z" fill="#263B73" stroke="#263B73"/>
<path d="M10.2465 20.627V20.6279C10.8283 20.679 11.4229 20.71 12.0199 20.71C12.6071 20.71 13.1921 20.679 13.764 20.6279H13.7679C13.8103 20.6239 13.857 20.6192 13.9066 20.6152C13.4455 21.1563 12.762 21.4999 12.0004 21.5C11.3414 21.5 10.6922 21.2318 10.2396 20.7627L10.222 20.7451L10.1302 20.6523C10.1184 20.6395 10.1077 20.6255 10.0961 20.6123C10.146 20.6172 10.1961 20.6227 10.2465 20.627Z" fill="#263B73" stroke="#263B73"/>
</svg>
