<svg width="20" height="20" viewBox="0 0 20 20" fill="none" xmlns="http://www.w3.org/2000/svg">
<path d="M6.66666 12.5C6.66666 13.8261 7.19344 15.0979 8.13112 16.0355C9.0688 16.9732 10.3406 17.5 11.6667 17.5C12.9927 17.5 14.2645 16.9732 15.2022 16.0355C16.1399 15.0979 16.6667 13.8261 16.6667 12.5V10" stroke="#51628F" stroke-width="1.49865" stroke-linecap="round" stroke-linejoin="round"/>
<path d="M9.16666 1.66663V3.33329" stroke="#6E7CA1" stroke-width="1.49865" stroke-linecap="round" stroke-linejoin="round"/>
<path d="M4.16666 1.66663V3.33329" stroke="#6E7CA1" stroke-width="1.49865" stroke-linecap="round" stroke-linejoin="round"/>
<path d="M4.16666 2.5H3.33332C2.8913 2.5 2.46737 2.67559 2.15481 2.98816C1.84225 3.30072 1.66666 3.72464 1.66666 4.16667V7.5C1.66666 8.82608 2.19344 10.0979 3.13112 11.0355C4.0688 11.9732 5.34057 12.5 6.66666 12.5C7.99274 12.5 9.26451 11.9732 10.2022 11.0355C11.1399 10.0979 11.6667 8.82608 11.6667 7.5V4.16667C11.6667 3.72464 11.4911 3.30072 11.1785 2.98816C10.8659 2.67559 10.442 2.5 9.99999 2.5H9.16666" stroke="#6E7CA1" stroke-width="1.49865" stroke-linecap="round" stroke-linejoin="round"/>
<path d="M16.6667 9.99996C17.5871 9.99996 18.3333 9.25377 18.3333 8.33329C18.3333 7.41282 17.5871 6.66663 16.6667 6.66663C15.7462 6.66663 15 7.41282 15 8.33329C15 9.25377 15.7462 9.99996 16.6667 9.99996Z" stroke="#51628F" stroke-width="1.49865" stroke-linecap="round" stroke-linejoin="round"/>
</svg>
