<svg width="20" height="20" viewBox="0 0 20 20" fill="none" xmlns="http://www.w3.org/2000/svg">
<path d="M5.78125 8.33337C5.20548 8.33763 4.85901 8.35528 4.58304 8.42835C3.32702 8.76093 2.46711 9.88663 2.50097 11.154C2.51077 11.521 2.65051 11.9747 2.93 12.8821C3.60261 15.0659 4.73303 16.9616 7.26537 17.4164C7.73086 17.5 8.25467 17.5 9.30228 17.5L10.6977 17.5C11.7453 17.5 12.2691 17.5 12.7346 17.4164C15.267 16.9616 16.3974 15.0659 17.07 12.8821C17.3495 11.9747 17.4892 11.521 17.499 11.154C17.5329 9.88663 16.673 8.76093 15.417 8.42835C15.141 8.35528 14.7945 8.33763 14.2188 8.33337" stroke="#9399A6" stroke-width="1.25" stroke-linecap="round"/>
<path d="M10 2.50008L10 11.6667M10 2.50008C10.3904 2.50008 10.687 2.86517 11.2804 3.59533L12.0834 4.58341M10 2.50008C9.60973 2.50008 9.31304 2.86516 8.71967 3.59533L7.91671 4.58341" stroke="#9399A6" stroke-width="1.25" stroke-linecap="round" stroke-linejoin="round"/>
</svg>
